<svg xmlns="http://www.w3.org/2000/svg" width="1280" height="720" viewBox="0 0 1280 720">
  <defs>
    <linearGradient id="bg" x1="0" y1="0" x2="0" y2="1">
      <stop offset="0" stop-color="#84e7ff"/>
      <stop offset="0.62" stop-color="#e9fbff"/>
      <stop offset="1" stop-color="#fff0b8"/>
    </linearGradient>
    <linearGradient id="panel" x1="0" y1="0" x2="0" y2="1">
      <stop offset="0" stop-color="#ffffff"/>
      <stop offset="1" stop-color="#e5faff"/>
    </linearGradient>
    <filter id="shadow" x="-20%" y="-20%" width="140%" height="140%">
      <feDropShadow dx="0" dy="8" stdDeviation="7" flood-color="#1688b8" flood-opacity="0.24"/>
    </filter>
    <style>
      .title{font:900 31px 'Microsoft YaHei',sans-serif;fill:#1374b8}
      .label{font:800 20px 'Microsoft YaHei',sans-serif;fill:#17627f}
      .small{font:600 15px 'Microsoft YaHei',sans-serif;fill:#34758b}
      .num{font:900 25px 'Microsoft YaHei',sans-serif;fill:#ff8a00}
    </style>
  </defs>
  <rect width="1280" height="720" fill="url(#bg)"/>
  <circle cx="1110" cy="92" r="58" fill="#fff58a"/>
  <g fill="#fff" opacity=".92">
    <ellipse cx="160" cy="98" rx="74" ry="26"/><ellipse cx="220" cy="82" rx="48" ry="31"/><ellipse cx="270" cy="102" rx="76" ry="27"/>
    <ellipse cx="760" cy="76" rx="86" ry="27"/><ellipse cx="830" cy="62" rx="58" ry="36"/><ellipse cx="900" cy="84" rx="80" ry="28"/>
  </g>

  <rect x="24" y="18" width="620" height="76" rx="30" fill="url(#panel)" stroke="#2bbcff" stroke-width="5" filter="url(#shadow)"/>
  <circle cx="68" cy="56" r="26" fill="#2bbcff"/><circle cx="68" cy="56" r="13" fill="#fff"/><circle cx="68" cy="56" r="6" fill="#ffcc36"/>
  <text x="108" y="51" class="title">星铃守护队</text>
  <text x="110" y="78" class="small">蓝白未来童趣 · 原创儿童向放置塔防</text>
  <rect x="680" y="18" width="178" height="76" rx="30" fill="#fff" stroke="#2bbcff" stroke-width="5" filter="url(#shadow)"/>
  <text x="710" y="50" class="small">星星能量</text><text x="750" y="80" class="num">140</text>
  <rect x="876" y="18" width="148" height="76" rx="30" fill="#fff" stroke="#2bbcff" stroke-width="5" filter="url(#shadow)"/>
  <text x="916" y="50" class="small">爱心</text><text x="936" y="80" class="num">12</text>
  <rect x="1042" y="18" width="214" height="76" rx="30" fill="#fff" stroke="#2bbcff" stroke-width="5" filter="url(#shadow)"/>
  <text x="1080" y="50" class="small">第 3 波</text><text x="1130" y="80" class="num">00:18</text>

  <rect x="42" y="116" width="872" height="468" rx="42" fill="#bdf3c7" stroke="#fff" stroke-width="9" filter="url(#shadow)"/>
  <path d="M42 452 C170 400 200 255 330 280 C450 305 440 475 585 468 C735 460 720 260 860 250 C1010 240 1020 380 1170 365" fill="none" stroke="#ffdd70" stroke-width="56" stroke-linecap="round"/>
  <path d="M42 452 C170 400 200 255 330 280 C450 305 440 475 585 468 C735 460 720 260 860 250 C1010 240 1020 380 1170 365" fill="none" stroke="#fff7c7" stroke-width="30" stroke-linecap="round" stroke-dasharray="18 18"/>

  <g filter="url(#shadow)">
    <circle cx="210" cy="330" r="40" fill="#fff" stroke="#1fb6ff" stroke-width="5"/><text x="188" y="338" class="label">泡泡</text>
    <circle cx="390" cy="430" r="40" fill="#fff" stroke="#00c981" stroke-width="5"/><text x="368" y="438" class="label">果冻</text>
    <circle cx="590" cy="300" r="40" fill="#fff" stroke="#ffb703" stroke-width="5"/><text x="568" y="308" class="label">星塔</text>
    <circle cx="780" cy="420" r="40" fill="#fff" stroke="#ff7ab6" stroke-width="5"/><text x="758" y="428" class="label">糖果</text>
  </g>
  <g fill="#fff" stroke="#40b9ec" stroke-width="4" stroke-dasharray="9 7" opacity=".9">
    <circle cx="290" cy="205" r="28"/><circle cx="500" cy="525" r="28"/><circle cx="705" cy="220" r="28"/><circle cx="855" cy="520" r="28"/>
  </g>
  <circle cx="1110" cy="365" r="28" fill="#fff"/><circle cx="1100" cy="359" r="4" fill="#1677b8"/><circle cx="1120" cy="359" r="4" fill="#1677b8"/><path d="M1098 374 Q1110 384 1122 374" stroke="#1677b8" stroke-width="4" fill="none"/>

  <rect x="940" y="116" width="296" height="468" rx="38" fill="#fff" stroke="#35bdf2" stroke-width="5" filter="url(#shadow)"/>
  <text x="976" y="160" class="title">守护升级</text>
  <rect x="974" y="188" width="226" height="92" rx="24" fill="#e9fbff" stroke="#75d9ff" stroke-width="3"/>
  <text x="1002" y="226" class="label">星塔 Lv.2</text><text x="1002" y="256" class="small">范围 +12  攻速 +8%</text>
  <rect x="974" y="310" width="226" height="62" rx="24" fill="#ffcc36" stroke="#ff9f1c" stroke-width="4"/><text x="1032" y="350" class="label">升级 58</text>
  <rect x="974" y="396" width="226" height="62" rx="24" fill="#72e8ff" stroke="#1fb6ff" stroke-width="4"/><text x="1017" y="436" class="label">自动放置 ON</text>
  <text x="974" y="508" class="small">关键词：圆润按钮、低龄友好、玩具科技、小道具感。</text>

  <rect x="78" y="610" width="1124" height="88" rx="36" fill="#fff" stroke="#38bdf8" stroke-width="5" filter="url(#shadow)"/>
  <rect x="112" y="628" width="180" height="52" rx="22" fill="#dff8ff" stroke="#1fb6ff" stroke-width="3"/><text x="144" y="662" class="label">泡泡炮 50</text>
  <rect x="316" y="628" width="180" height="52" rx="22" fill="#e7ffe8" stroke="#00c981" stroke-width="3"/><text x="348" y="662" class="label">果冻塔 70</text>
  <rect x="520" y="628" width="180" height="52" rx="22" fill="#fff4bb" stroke="#ffb703" stroke-width="3"/><text x="552" y="662" class="label">星星塔 90</text>
  <rect x="724" y="628" width="180" height="52" rx="22" fill="#ffe2f0" stroke="#ff7ab6" stroke-width="3"/><text x="756" y="662" class="label">糖果机 80</text>
  <rect x="960" y="628" width="196" height="52" rx="22" fill="#1677b8"/><text x="1000" y="662" class="label" fill="#fff">开始下一波</text>
</svg>
